<?xml version="1.0" standalone="no"?>
<!DOCTYPE svg PUBLIC "-//W3C//DTD SVG 20010904//EN"
 "http://www.w3.org/TR/2001/REC-SVG-20010904/DTD/svg10.dtd">
<svg version="1.0" xmlns="http://www.w3.org/2000/svg"
 width="697.000000pt" height="697.000000pt" viewBox="0 0 697.000000 697.000000"
 preserveAspectRatio="xMidYMid meet">
<metadata>
Created by potrace 1.14, written by Peter Selinger 2001-2017
</metadata>
<g transform="translate(0.000000,697.000000) scale(0.100000,-0.100000)"
fill="#000000" stroke="none">
<path d="M3450 6959 c0 -5 -9 -9 -19 -9 -11 0 -27 -7 -35 -16 -9 -8 -16 -12
-16 -8 0 4 -21 -15 -47 -42 -26 -27 -43 -42 -39 -34 4 8 0 6 -9 -5 -9 -11 -21
-19 -26 -17 -5 1 -9 -5 -9 -13 0 -8 -7 -15 -16 -15 -8 0 -12 -4 -9 -10 3 -5 1
-10 -5 -10 -7 0 -27 -16 -46 -35 -34 -35 -51 -45 -38 -22 4 7 3 9 -2 4 -5 -5
-9 -13 -9 -18 0 -5 -4 -9 -9 -8 -5 0 -13 -6 -18 -15 -5 -9 -13 -14 -19 -11 -5
4 -9 0 -9 -7 0 -8 -14 -22 -30 -32 -17 -9 -41 -28 -55 -42 -13 -13 -28 -24
-33 -24 -6 0 -13 -7 -16 -16 -4 -9 -13 -14 -21 -10 -9 3 -15 0 -15 -10 0 -8
-4 -13 -9 -10 -5 3 -12 -1 -15 -10 -4 -9 -13 -14 -21 -10 -8 3 -14 0 -12 -7 1
-7 -4 -11 -10 -9 -7 1 -13 -5 -13 -13 0 -8 -9 -15 -21 -15 -11 0 -17 -4 -14
-10 3 -5 -1 -10 -9 -10 -9 0 -16 -4 -16 -10 0 -5 -7 -10 -15 -10 -8 0 -15 -4
-15 -10 0 -5 -9 -10 -21 -10 -11 0 -17 -4 -14 -10 3 -5 -1 -10 -9 -10 -9 0
-16 -4 -16 -10 0 -5 -9 -10 -21 -10 -11 0 -17 -4 -14 -10 3 -5 -1 -10 -9 -10
-9 0 -16 -5 -16 -11 0 -5 -4 -7 -10 -4 -5 3 -10 1 -10 -5 0 -6 -4 -9 -9 -6 -5
3 -12 -1 -15 -10 -4 -9 -13 -14 -21 -10 -9 3 -15 0 -15 -9 0 -8 -7 -15 -15
-15 -8 0 -15 -5 -15 -11 0 -5 -4 -8 -9 -5 -4 3 -19 -3 -31 -14 -12 -11 -28
-17 -34 -13 -6 3 -8 3 -4 -2 9 -9 -20 -34 -40 -35 -7 0 -20 -7 -29 -15 -8 -8
-19 -13 -24 -9 -5 3 -12 -2 -15 -10 -3 -9 -10 -13 -15 -10 -5 3 -9 0 -9 -6 0
-6 -4 -8 -10 -5 -5 3 -10 1 -10 -6 0 -7 -3 -9 -7 -6 -3 4 -12 -1 -20 -11 -8
-9 -11 -11 -8 -4 6 11 3 11 -13 1 -12 -7 -18 -17 -15 -22 3 -4 -1 -8 -8 -6
-27 3 -40 -1 -34 -11 4 -6 -5 -10 -19 -10 -14 0 -26 -4 -26 -10 0 -5 -9 -10
-21 -10 -11 0 -17 -4 -14 -10 3 -5 -3 -10 -15 -10 -12 0 -28 -7 -37 -15 -8 -8
-18 -13 -23 -10 -4 3 -13 -2 -20 -10 -6 -7 -19 -11 -27 -8 -11 4 -14 2 -9 -5
7 -12 -5 -16 -33 -13 -7 2 -10 -2 -7 -7 7 -11 -40 -26 -55 -17 -5 4 -8 1 -7
-7 2 -7 -5 -12 -15 -11 -11 0 -16 -4 -13 -12 3 -8 -2 -11 -13 -8 -10 2 -23 -3
-30 -11 -8 -9 -24 -16 -37 -16 -13 0 -24 -5 -24 -11 0 -5 -4 -8 -9 -5 -4 3
-17 -1 -27 -9 -10 -8 -32 -15 -49 -15 -23 0 -27 -3 -15 -10 11 -7 7 -10 -17
-10 -18 0 -33 -5 -33 -11 0 -5 -4 -8 -9 -4 -5 3 -12 1 -16 -5 -3 -5 -15 -10
-26 -10 -10 0 -19 -4 -19 -10 0 -5 -7 -7 -15 -4 -8 4 -15 1 -15 -7 0 -7 -3 -9
-7 -6 -3 4 -12 2 -19 -4 -8 -6 -20 -9 -28 -6 -8 3 -16 2 -18 -4 -2 -5 -14 -11
-27 -14 -14 -2 -28 -10 -32 -16 -5 -8 -8 -7 -12 2 -4 10 -6 10 -6 2 -1 -7 -12
-13 -25 -13 -14 0 -28 -4 -31 -10 -3 -5 -21 -10 -38 -10 -24 0 -28 -3 -17 -10
11 -7 5 -10 -22 -10 -21 0 -38 -4 -38 -10 0 -5 -19 -10 -42 -10 -32 0 -39 -3
-28 -10 11 -7 5 -10 -22 -10 -24 0 -38 -5 -38 -12 0 -9 -4 -8 -10 2 -6 9 -10
10 -10 3 0 -6 -15 -13 -32 -15 -18 -2 -32 -8 -31 -14 1 -6 -13 -9 -33 -8 -19
2 -32 0 -30 -5 3 -4 -1 -8 -9 -8 -8 0 -15 5 -15 11 0 6 -5 4 -10 -6 -6 -10
-20 -15 -36 -13 -15 1 -28 -3 -31 -11 -3 -8 -9 -14 -15 -14 -5 0 -6 6 -2 13 6
8 3 8 -9 -2 -9 -7 -23 -11 -32 -8 -8 4 -17 2 -20 -3 -3 -5 -13 -6 -22 -3 -11
4 -14 3 -9 -6 5 -8 -1 -11 -21 -11 -43 0 -63 -3 -63 -10 0 -4 -18 -13 -40 -20
-21 -7 -38 -16 -37 -19 1 -4 -11 -19 -27 -34 -16 -15 -26 -27 -22 -27 3 0 0
-10 -8 -22 -20 -31 -23 -563 -3 -587 9 -12 9 -13 0 -7 -18 10 -18 -55 0 -73 9
-11 9 -13 0 -7 -15 9 -18 -20 -3 -29 7 -4 7 -13 0 -26 -7 -13 -7 -19 0 -19 5
0 10 -5 10 -11 0 -5 -6 -7 -12 -3 -10 6 -10 5 -1 -7 8 -10 13 -49 14 -97 1
-58 4 -80 13 -75 6 3 6 1 -1 -8 -16 -16 -17 -33 -2 -23 8 5 8 1 0 -14 -14 -25
-14 -43 -1 -22 11 17 12 12 12 -75 0 -27 5 -53 11 -57 8 -5 7 -8 -3 -8 -12 0
-12 -2 -2 -9 9 -5 13 -29 13 -65 0 -31 4 -56 9 -56 4 0 11 -7 14 -16 6 -15 4
-15 -10 -3 -16 13 -16 12 -5 -9 7 -13 13 -36 13 -53 1 -16 6 -29 12 -29 7 0 7
-3 1 -8 -16 -11 -18 -35 -2 -29 11 4 14 -5 12 -44 -1 -34 2 -49 9 -46 8 3 12
-10 11 -39 -1 -24 2 -44 6 -44 5 0 5 -7 2 -17 -4 -11 -3 -14 5 -9 8 5 10 -4 8
-29 -1 -20 3 -40 10 -46 6 -5 11 -25 10 -44 -1 -20 4 -37 11 -40 7 -2 13 -15
13 -29 0 -14 5 -28 10 -31 8 -5 7 -11 -1 -21 -10 -12 -10 -15 2 -12 9 2 13 -4
11 -15 -2 -10 3 -26 10 -35 11 -13 11 -14 -2 -7 -13 8 -13 6 -2 -8 8 -9 11
-21 7 -27 -3 -5 -2 -10 3 -10 6 0 13 -7 16 -16 3 -8 2 -12 -4 -9 -6 3 -10 1
-10 -4 0 -6 7 -11 17 -11 9 0 13 -3 10 -7 -4 -3 -1 -13 6 -21 9 -13 9 -14 0
-8 -9 5 -11 2 -7 -8 3 -9 9 -14 13 -12 3 2 7 -7 7 -20 1 -13 -3 -24 -10 -24
-6 0 -5 -4 4 -9 8 -6 17 -8 20 -6 4 2 7 -2 7 -10 0 -8 -5 -11 -11 -8 -6 4 -2
-4 8 -16 20 -22 20 -22 0 -16 -14 4 -13 2 4 -6 24 -13 29 -34 10 -42 -8 -3 -6
-6 5 -6 11 -1 20 -12 24 -31 3 -17 10 -33 14 -36 5 -3 9 -19 9 -35 0 -17 7
-37 15 -46 8 -8 13 -19 10 -24 -4 -5 -1 -9 4 -9 6 0 11 -9 11 -20 0 -11 5 -20
10 -20 14 0 12 -47 -2 -54 -7 -3 -3 -3 10 0 17 4 22 1 22 -14 0 -11 5 -22 11
-24 6 -2 12 -18 12 -35 1 -24 5 -29 14 -21 9 7 11 4 8 -11 -2 -12 2 -27 9 -33
11 -11 10 -15 -3 -26 -9 -7 -10 -11 -3 -7 19 10 42 -18 30 -38 -5 -10 -6 -17
-1 -16 25 4 34 -2 28 -21 -5 -14 -2 -20 10 -20 9 0 13 -4 10 -10 -3 -5 -2 -10
4 -10 6 0 8 -7 5 -15 -4 -9 0 -15 10 -15 9 0 13 -6 10 -14 -3 -8 -1 -17 5 -21
15 -9 14 -28 -1 -20 -7 4 -1 -3 15 -15 15 -12 25 -25 22 -30 -3 -4 2 -11 11
-14 9 -4 14 -13 10 -21 -3 -9 1 -15 10 -15 11 0 15 -6 11 -20 -3 -12 0 -20 8
-20 7 0 16 -7 19 -16 5 -12 3 -14 -7 -8 -7 5 -5 2 5 -8 20 -18 24 -38 6 -38
-6 0 -8 -3 -5 -6 4 -4 14 -1 22 6 9 7 15 9 14 4 -1 -5 -1 -20 0 -34 1 -20 3
-22 11 -10 8 13 10 12 10 -3 0 -10 9 -27 20 -39 11 -12 20 -29 20 -39 0 -9 7
-20 16 -23 10 -4 14 -12 10 -22 -4 -12 -2 -15 9 -11 8 4 17 2 20 -3 4 -6 1
-10 -4 -10 -6 0 -11 -4 -11 -10 0 -5 6 -10 14 -10 8 0 18 -5 22 -12 4 -6 3 -8
-3 -5 -5 3 -10 0 -10 -7 0 -8 7 -12 15 -8 10 3 13 1 8 -6 -4 -7 -1 -12 9 -12
9 0 13 -5 10 -10 -4 -6 4 -20 17 -31 13 -11 16 -18 8 -14 -10 4 -9 2 2 -8 10
-8 15 -17 11 -20 -3 -4 -1 -7 6 -7 7 0 19 -7 27 -15 16 -15 6 -21 -12 -8 -5 5
-1 0 9 -9 10 -10 15 -23 11 -29 -4 -8 -3 -9 4 -5 7 4 12 2 12 -4 0 -6 5 -8 12
-4 7 5 9 2 5 -8 -4 -11 1 -18 14 -21 11 -3 23 -15 26 -26 3 -12 10 -21 17 -21
6 0 4 -5 -4 -10 -12 -8 -10 -10 10 -11 23 0 23 -1 5 -9 -19 -8 -19 -9 2 -9 17
-1 21 -5 16 -18 -5 -12 -3 -14 7 -8 10 6 12 4 7 -7 -3 -10 0 -15 11 -14 9 0
22 -10 29 -24 7 -14 17 -24 23 -23 5 2 7 -4 4 -12 -4 -8 -1 -15 5 -15 6 0 17
-11 23 -25 6 -14 18 -25 25 -25 8 0 12 -3 10 -7 -4 -8 28 -43 35 -40 2 1 -4
-4 -12 -11 -13 -11 -11 -12 13 -8 15 3 25 1 22 -4 -3 -5 1 -14 8 -22 13 -13
17 -20 17 -35 0 -5 5 -1 11 7 9 12 10 11 6 -7 -3 -13 -1 -23 4 -23 5 0 11 0
14 0 10 1 33 -25 32 -35 -1 -5 3 -9 10 -8 7 2 10 -7 7 -25 -5 -26 -5 -26 11
-7 10 13 14 15 13 5 -2 -8 3 -14 10 -12 9 2 11 -2 6 -10 -14 -22 -13 -37 3
-31 12 5 12 7 1 15 -10 8 -10 9 2 5 8 -2 15 -14 14 -25 0 -17 2 -19 13 -11 9
9 13 8 13 0 0 -7 5 -9 13 -5 8 5 8 2 -2 -9 -12 -15 -11 -17 5 -18 11 -1 23 -1
27 0 4 1 3 -8 -3 -19 -8 -15 -8 -18 2 -15 7 3 18 -5 23 -17 6 -12 21 -25 35
-28 16 -4 24 -12 22 -23 -2 -10 3 -16 10 -15 7 2 12 -3 10 -11 -2 -9 3 -11 13
-7 9 3 13 2 10 -3 -3 -5 4 -12 15 -16 11 -3 20 -11 20 -17 0 -6 -7 -5 -17 3
-16 12 -17 12 -6 -2 7 -9 9 -20 5 -25 -4 -4 1 -2 11 5 23 18 34 7 16 -16 -11
-15 -11 -16 1 -5 19 16 30 15 30 -4 0 -8 5 -12 10 -9 6 3 10 2 10 -4 0 -5 9
-12 20 -16 11 -3 19 -12 17 -18 -1 -7 4 -11 11 -10 6 2 12 -1 12 -6 0 -5 -6
-12 -12 -15 -7 -3 -2 -3 11 0 20 5 23 3 19 -14 -4 -15 -1 -18 14 -14 14 3 21
-2 25 -17 3 -11 9 -22 14 -22 5 -1 13 -2 19 -3 5 0 15 -7 22 -15 8 -9 8 -11 1
-7 -6 3 -14 3 -17 -2 -2 -4 5 -9 17 -9 12 -1 23 -7 25 -13 2 -5 11 -10 19 -10
12 0 13 -3 4 -14 -10 -12 -8 -13 10 -9 18 5 21 3 16 -10 -4 -11 -2 -14 7 -11
8 3 16 -4 19 -15 3 -12 13 -21 25 -21 11 0 23 -7 26 -16 3 -9 11 -12 18 -8 8
5 9 2 5 -9 -3 -9 -3 -16 1 -15 15 5 52 -24 53 -40 0 -11 2 -12 6 -4 4 9 10 7
22 -7 10 -12 21 -18 25 -14 3 3 6 -1 6 -11 0 -9 5 -14 10 -11 6 3 10 1 10 -5
0 -6 5 -8 10 -5 6 3 10 -1 10 -10 0 -9 5 -13 10 -10 6 3 10 1 10 -5 0 -6 5 -8
12 -4 8 5 9 2 5 -10 -4 -9 -3 -14 2 -11 5 3 12 1 16 -5 4 -6 10 -8 15 -5 5 3
11 -3 14 -13 4 -10 22 -24 41 -32 19 -7 32 -17 29 -22 -3 -4 3 -8 13 -8 15 0
16 -2 3 -10 -12 -8 -9 -10 13 -10 16 0 26 -4 22 -10 -3 -6 3 -10 14 -10 28 0
27 -14 -1 -27 -22 -10 -22 -11 4 -9 14 0 24 5 21 9 -3 5 3 7 12 5 10 -1 20 -9
23 -17 3 -9 0 -11 -8 -6 -8 5 -11 4 -6 -3 4 -6 13 -9 21 -5 8 3 15 0 15 -7 0
-7 8 -10 20 -7 12 3 20 0 20 -8 0 -8 -11 -11 -32 -9 -17 2 -29 1 -25 -2 3 -4
24 -7 45 -8 38 -2 78 -27 64 -40 -3 -4 1 -4 11 0 11 4 17 1 17 -7 0 -7 3 -9 6
-6 4 4 15 -3 25 -15 11 -11 19 -18 19 -14 0 4 13 -2 29 -13 16 -12 34 -21 40
-21 6 0 11 -10 12 -22 0 -13 3 -17 6 -10 2 6 9 12 14 12 4 0 6 -7 3 -15 -4
-10 -2 -14 7 -10 8 3 21 0 29 -5 12 -8 13 -11 1 -19 -9 -6 -10 -11 -2 -15 6
-4 11 -2 11 3 0 6 9 11 21 11 11 0 17 -5 14 -10 -3 -6 3 -10 15 -10 12 0 18
-5 15 -10 -3 -6 2 -10 13 -10 10 0 24 -10 30 -22 6 -13 11 -17 11 -10 1 14 31
17 31 2 0 -5 21 -10 46 -10 32 0 43 -3 38 -12 -4 -7 -3 -8 4 -4 7 4 12 15 13
24 0 11 2 13 6 4 3 -9 10 -7 24 9 10 12 19 17 19 11 0 -7 5 -12 12 -12 6 0 9
3 5 6 -3 3 -1 12 6 19 9 10 14 9 25 -4 7 -9 11 -11 8 -4 -8 14 3 45 14 38 4
-2 15 4 25 15 10 11 30 20 44 20 21 0 23 2 11 11 -12 9 -11 10 8 6 12 -3 20
-1 17 3 -11 18 19 22 32 5 7 -11 13 -14 13 -8 0 7 -4 15 -10 18 -5 3 -10 11
-10 16 0 6 4 8 9 5 5 -3 14 1 21 9 7 8 22 15 34 15 14 0 17 3 9 8 -9 6 -6 11
8 21 12 7 18 8 15 3 -3 -6 5 -5 18 1 16 8 21 14 13 19 -13 8 -5 11 28 9 11 0
14 2 7 5 -15 7 -6 24 14 24 8 0 13 -4 9 -9 -3 -5 -1 -12 4 -16 6 -3 8 3 6 13
-1 9 4 26 12 37 14 17 15 18 9 2 -4 -13 -2 -16 7 -10 6 4 15 8 19 8 3 0 10 4
15 9 5 5 3 6 -4 2 -16 -9 -17 10 -2 20 6 3 15 0 20 -7 6 -10 9 -8 9 9 0 22 25
30 46 15 5 -5 1 0 -9 10 -19 17 -19 17 4 18 13 1 27 1 32 0 4 0 6 2 6 6 -1 5
-1 15 0 23 1 13 2 13 11 0 8 -12 10 -10 10 10 0 20 2 22 10 10 8 -13 10 -13
10 2 0 12 5 15 15 11 9 -3 15 -2 13 3 -2 5 2 9 7 9 6 0 9 -4 7 -8 -1 -5 2 -6
8 -2 6 3 8 11 4 16 -3 6 6 21 20 34 16 15 27 19 30 12 3 -8 5 -7 5 2 1 17 51
61 69 61 7 0 10 5 7 10 -3 6 -1 10 4 10 6 0 11 -6 11 -12 0 -9 3 -8 9 2 6 8 8
17 5 21 -2 4 5 10 16 14 12 4 18 11 14 18 -5 8 -2 8 7 0 7 -7 18 -13 23 -13 6
0 4 5 -4 10 -13 9 -13 11 0 19 8 5 19 7 25 3 5 -3 4 1 -2 9 -10 13 -10 16 5
16 9 0 24 -5 32 -10 12 -9 13 -9 3 3 -18 19 -16 35 1 21 12 -10 13 -8 9 10 -4
15 -3 20 5 15 7 -4 12 -1 12 8 0 10 9 16 22 16 12 0 19 3 15 6 -10 10 22 36
38 30 8 -3 12 0 9 8 -3 7 6 21 18 32 23 19 23 19 8 -1 -14 -19 -14 -19 3 -6
10 8 16 20 13 27 -3 7 0 16 6 20 7 4 8 3 4 -4 -4 -7 -1 -12 8 -12 10 0 13 6 9
15 -3 10 0 15 8 13 8 -2 13 3 11 10 -1 8 2 11 7 8 5 -3 11 1 15 9 3 8 13 15
23 15 15 0 16 2 3 10 -12 8 -10 10 8 10 13 0 21 -4 17 -9 -3 -5 -1 -12 4 -15
5 -4 8 1 7 10 -1 8 -9 20 -17 25 -12 7 -12 9 2 9 8 0 19 -3 25 -8 5 -4 6 -3 2
3 -11 13 -10 27 2 20 6 -3 10 2 10 11 0 10 3 14 7 11 3 -4 15 5 25 20 10 16
18 24 18 20 0 -5 7 -1 16 7 8 9 20 13 26 10 7 -4 8 -2 4 4 -4 6 -14 8 -24 5
-9 -3 -14 -3 -10 1 3 4 14 9 25 11 10 1 17 8 15 15 -1 6 7 14 18 17 11 3 17
10 13 17 -5 7 -2 7 8 -1 10 -8 19 -9 29 -1 12 8 12 9 -2 4 -12 -3 -18 0 -18 9
0 8 6 15 13 16 25 1 49 8 55 15 4 4 -1 4 -10 1 -21 -7 -22 -3 -8 23 9 16 15
18 38 10 25 -9 26 -9 8 5 -19 14 -18 16 16 49 20 19 33 38 29 42 -3 4 2 4 13
0 14 -5 17 -2 12 9 -3 10 -2 13 5 10 6 -4 13 3 16 15 3 12 11 19 19 16 8 -3
11 2 9 15 -2 11 0 17 6 14 5 -4 9 1 9 10 0 9 5 13 10 10 6 -3 10 1 10 9 0 9 6
15 13 13 6 -1 11 6 9 15 -2 13 4 18 20 18 17 0 19 3 9 9 -11 7 -9 10 7 16 12
3 21 12 19 18 -1 7 6 11 16 11 14 -2 15 1 6 12 -11 13 -2 19 23 15 4 0 5 6 2
14 -4 9 2 18 17 24 13 5 18 10 11 10 -7 1 -10 6 -7 11 4 6 11 7 17 4 6 -4 8
-2 4 4 -3 6 1 17 9 25 8 9 15 20 15 26 0 6 7 11 16 11 8 0 12 5 9 10 -3 6 2
10 12 10 15 0 16 2 3 11 -12 9 -11 10 7 6 14 -3 27 2 35 12 11 14 11 14 -4 3
-11 -9 -18 -10 -23 -2 -3 5 -1 10 5 10 6 0 8 5 4 12 -5 8 -2 9 10 5 14 -6 17
-3 12 9 -4 11 -2 15 8 11 11 -4 13 -1 9 10 -5 12 -3 14 7 8 10 -6 12 -4 7 7
-3 9 3 24 14 34 10 9 19 21 19 27 0 13 52 72 61 70 4 -1 5 8 2 20 -4 18 -3 19
6 7 9 -12 11 -10 11 13 0 31 7 34 27 10 13 -16 13 -16 4 4 -14 27 -14 36 -1
28 5 -3 7 0 4 8 -3 8 0 18 5 22 6 3 9 10 6 15 -3 5 0 12 6 16 8 4 9 3 5 -4 -4
-7 -3 -12 2 -12 15 0 22 28 9 34 -7 2 -5 5 4 5 15 1 30 27 33 58 1 6 5 15 10
20 5 4 6 3 2 -4 -4 -7 -2 -13 3 -13 10 0 15 14 12 33 -1 4 6 15 14 23 8 9 12
20 9 26 -4 6 -2 8 4 4 6 -3 13 3 17 14 4 12 11 17 18 14 7 -4 9 -4 5 1 -4 4
-2 15 5 23 9 13 9 14 0 8 -8 -4 -13 -2 -13 5 0 7 8 9 21 6 16 -4 19 -3 11 5
-15 15 4 51 21 41 7 -4 7 0 -2 10 -12 15 -11 17 4 17 11 0 15 5 12 14 -3 8 1
17 9 20 8 3 14 11 13 18 -3 26 1 39 11 33 6 -3 10 3 10 14 0 11 5 23 10 26 6
3 10 15 10 26 0 11 5 17 10 14 6 -4 10 5 10 20 0 15 4 24 10 20 6 -4 10 7 10
25 0 18 4 29 10 25 9 -6 15 8 11 29 -1 4 6 14 16 22 10 7 14 14 9 14 -5 0 -2
8 5 17 12 15 12 16 -1 8 -8 -4 -5 2 8 14 22 22 31 48 12 36 -16 -10 -11 1 7
16 11 10 14 10 9 2 -4 -7 -2 -13 4 -13 6 0 8 10 4 24 -3 13 -1 27 5 30 6 4 11
18 11 31 0 13 4 25 9 27 5 2 11 12 13 23 1 11 8 26 15 32 6 7 9 23 7 35 -2 13
-2 17 2 11 10 -22 23 -14 18 11 -2 14 3 31 12 40 10 10 11 16 3 16 -8 0 -9 3
0 13 6 8 8 17 4 20 -3 4 0 7 9 7 10 0 14 9 13 28 -2 34 4 54 16 46 5 -3 6 3 2
12 -4 12 -3 15 5 10 9 -5 9 0 2 19 -7 17 -7 24 0 20 6 -3 11 -1 11 4 1 6 3 16
4 21 1 6 3 19 4 31 0 11 6 17 12 14 6 -4 10 -1 8 6 -4 37 2 70 12 63 8 -5 10
6 7 34 -2 28 0 38 7 32 8 -7 12 5 14 38 1 25 6 49 11 52 5 3 10 24 11 47 2 23
6 40 11 37 7 -5 13 19 9 40 -1 4 4 15 11 24 10 12 10 14 1 8 -7 -4 -13 -2 -13
4 0 6 6 13 13 16 8 3 12 21 11 47 -1 23 2 44 5 47 12 10 32 52 22 45 -7 -3
-11 2 -11 14 0 12 6 21 13 21 7 0 8 3 2 8 -13 9 -12 36 1 53 6 8 11 32 10 54
-1 24 5 45 14 53 13 12 13 13 0 7 -8 -4 -6 1 4 9 11 9 14 16 8 16 -15 0 -16
36 -1 46 8 4 7 9 -2 15 -11 7 -11 9 1 9 13 0 13 1 0 10 -8 5 -10 10 -4 10 6 0
11 6 11 13 0 6 4 20 8 30 6 14 3 16 -11 11 -17 -5 -17 -4 -2 5 9 6 15 20 13
31 -2 11 1 22 7 26 7 4 6 9 -3 14 -9 6 -10 12 -2 22 6 7 9 23 7 36 -2 13 0 21
5 17 5 -3 13 0 17 6 4 7 3 9 -2 6 -9 -5 -9 167 0 253 2 19 -1 40 -6 47 -6 7
-4 14 3 19 8 5 9 3 4 -6 -5 -9 -4 -11 4 -6 6 4 9 12 5 17 -9 16 -12 59 -3 54
10 -7 6 36 -6 54 -5 10 -4 12 3 7 8 -5 12 1 12 14 0 13 -4 18 -11 15 -6 -4 -5
3 3 14 11 18 11 23 -1 30 -11 7 -11 9 0 13 12 5 12 9 1 28 -8 12 -9 19 -3 15
14 -8 12 72 -1 99 -7 12 -7 16 0 12 11 -7 10 219 -1 230 -4 4 -7 12 -7 18 0 6
5 4 10 -4 5 -8 10 -12 10 -7 0 15 -53 87 -60 82 -4 -3 -10 2 -14 10 -3 8 -12
15 -21 15 -8 0 -15 5 -15 10 0 6 -8 10 -18 10 -10 0 -22 4 -28 10 -5 5 -24 10
-42 12 -17 1 -32 6 -32 11 0 4 -4 5 -10 2 -5 -3 -10 -2 -10 3 0 6 -8 8 -19 5
-10 -2 -25 3 -34 11 -9 10 -18 12 -22 6 -4 -6 -12 -6 -23 -1 -26 14 -55 24
-74 26 -10 1 -23 7 -30 12 -7 5 -23 8 -35 7 -13 0 -23 4 -23 10 0 7 -11 13
-25 14 -47 3 -55 5 -55 14 0 4 -11 8 -25 8 -14 0 -25 5 -25 10 0 6 -13 10 -30
10 -16 0 -30 5 -30 10 0 6 -16 10 -36 10 -21 0 -33 4 -29 10 6 9 -22 15 -54
11 -7 -2 -10 2 -6 8 5 10 -14 16 -37 12 -5 0 -8 3 -8 9 0 5 -13 10 -29 10 -16
0 -31 4 -33 9 -1 5 -12 11 -23 13 -11 1 -26 9 -33 16 -7 6 -22 12 -32 12 -10
0 -21 6 -23 13 -4 9 -6 9 -6 -1 -1 -8 -8 -6 -23 8 -12 11 -28 20 -35 20 -7 0
-32 9 -56 19 -23 11 -61 27 -84 37 -24 10 -43 21 -43 25 0 4 -9 6 -20 4 -12
-2 -20 2 -20 9 0 7 -7 13 -15 14 -8 1 -22 3 -30 4 -8 1 -15 6 -15 11 0 5 -7 7
-15 3 -9 -3 -15 0 -15 9 0 8 -3 14 -7 14 -23 -4 -43 2 -38 11 4 6 3 10 -2 9
-22 -4 -43 2 -38 11 4 6 -5 10 -19 10 -14 0 -26 5 -26 10 0 6 -7 10 -16 10 -8
0 -22 7 -31 15 -8 8 -19 13 -24 10 -5 -4 -9 -1 -9 4 0 6 -9 11 -20 11 -11 0
-20 4 -20 9 0 5 -22 20 -50 32 -27 12 -50 27 -50 31 0 5 -4 7 -9 3 -5 -3 -12
-1 -16 5 -4 6 -11 8 -16 5 -5 -4 -9 1 -9 10 0 9 -4 14 -9 10 -5 -3 -16 2 -25
10 -8 9 -18 16 -21 15 -26 -1 -35 2 -30 10 3 6 -2 10 -13 10 -10 0 -27 9 -37
20 -10 11 -26 20 -37 20 -10 0 -18 7 -18 16 0 8 -4 12 -10 9 -5 -3 -10 -1 -10
5 0 6 -4 8 -10 5 -5 -3 -10 -1 -10 4 0 6 -7 11 -16 11 -8 0 -12 5 -9 10 4 6 3
10 -2 9 -19 -3 -46 2 -40 8 9 8 -24 32 -45 33 -10 0 -18 5 -18 10 0 6 -7 10
-16 10 -9 0 -12 5 -8 12 4 6 3 8 -3 5 -6 -4 -23 5 -39 18 -16 14 -37 25 -47
25 -10 0 -15 5 -12 10 3 6 1 10 -5 10 -6 0 -18 6 -25 13 -34 30 -43 35 -49 30
-3 -4 -6 1 -6 10 0 10 -8 17 -20 17 -11 0 -20 5 -20 10 0 6 -7 10 -15 10 -8 0
-20 9 -27 20 -7 11 -21 20 -30 20 -11 0 -15 5 -12 15 5 11 2 13 -10 9 -9 -3
-16 -1 -16 5 0 6 -6 11 -14 11 -8 0 -18 5 -22 12 -5 7 -3 8 6 3 9 -5 11 -4 6
4 -4 7 -13 10 -19 8 -6 -2 -21 7 -33 20 -12 13 -25 23 -30 23 -5 0 -16 9 -24
20 -8 11 -18 20 -23 20 -5 0 -22 14 -37 30 -19 20 -30 26 -33 18 -3 -8 -6 -6
-6 5 -1 10 -5 15 -11 12 -5 -3 -10 1 -10 10 0 9 -4 14 -8 11 -5 -3 -14 4 -22
14 -8 10 -17 17 -22 14 -4 -3 -8 0 -8 6 0 6 -5 8 -12 4 -8 -5 -9 -2 -5 9 4 11
1 17 -8 17 -8 0 -15 5 -15 10 0 6 -7 10 -15 10 -8 0 -15 5 -15 10 0 6 -7 10
-16 10 -8 0 -13 4 -10 9 3 5 -28 9 -69 9 -41 0 -75 -4 -75 -9z m-1430 -5754
c7 -9 8 -15 2 -15 -5 0 -12 7 -16 15 -3 8 -4 15 -2 15 2 0 9 -7 16 -15z"/>
<path d="M6446 3992 c-2 -4 -1 -14 4 -22 7 -11 9 -9 7 8 -1 24 -3 26 -11 14z"/>
<path d="M750 3093 c0 -6 8 -17 18 -24 16 -13 16 -13 2 6 -8 11 -16 22 -17 24
-2 2 -3 0 -3 -6z"/>
<path d="M990 2530 c0 -5 5 -10 11 -10 5 0 7 5 4 10 -3 6 -8 10 -11 10 -2 0
-4 -4 -4 -10z"/>
<path d="M5773 2165 c0 -8 4 -12 9 -9 5 3 6 10 3 15 -9 13 -12 11 -12 -6z"/>
<path d="M5605 1929 c-4 -6 -5 -12 -2 -15 2 -3 7 2 10 11 7 17 1 20 -8 4z"/>
<path d="M1463 1815 c0 -8 4 -12 9 -9 5 3 6 10 3 15 -9 13 -12 11 -12 -6z"/>
<path d="M1559 1673 c-13 -16 -12 -17 4 -4 16 13 21 21 13 21 -2 0 -10 -8 -17
-17z"/>
<path d="M1570 1651 c0 -6 4 -13 10 -16 6 -3 7 1 4 9 -7 18 -14 21 -14 7z"/>
<path d="M5130 1331 c0 -6 4 -13 10 -16 6 -3 7 1 4 9 -7 18 -14 21 -14 7z"/>
<path d="M2375 821 c-3 -5 -2 -12 3 -15 5 -3 9 1 9 9 0 17 -3 19 -12 6z"/>
<path d="M4330 589 c0 -5 5 -7 10 -4 6 3 10 8 10 11 0 2 -4 4 -10 4 -5 0 -10
-5 -10 -11z"/>
<path d="M4270 556 c0 -2 9 -6 20 -9 11 -3 18 -1 14 4 -5 9 -34 13 -34 5z"/>
<path d="M3035 310 c3 -5 8 -10 11 -10 2 0 4 5 4 10 0 6 -5 10 -11 10 -5 0 -7
-4 -4 -10z"/>
</g>
</svg>
